<?xml version="1.0" encoding="UTF-8" standalone="no"?><!DOCTYPE svg PUBLIC "-//W3C//DTD SVG 1.1//EN" "http://www.w3.org/Graphics/SVG/1.1/DTD/svg11.dtd"><svg width="100%" height="100%" viewBox="0 0 547 116" version="1.1" xmlns="http://www.w3.org/2000/svg" xmlns:xlink="http://www.w3.org/1999/xlink" xml:space="preserve" xmlns:serif="http://www.serif.com/" style="fill-rule:evenodd;clip-rule:evenodd;stroke-linejoin:round;stroke-miterlimit:2;"><path d="M161.5,36l-19.81,0l0,49l19.81,0c14.84,0 25.34,-10.22 25.34,-24.5c0,-14.35 -10.5,-24.5 -25.34,-24.5Zm-0.63,36.68l-5.6,0l0,-24.29l5.6,-0c7.28,-0 12.11,4.83 12.11,12.11c-0,7.21 -4.83,12.18 -12.11,12.18Zm50.133,-25.62c-4.48,0 -7.7,1.26 -10.36,4.34l-2.03,-4.2l-8.75,0l-0,37.8l13.02,0l-0,-19.18c-0,-4.83 1.96,-6.86 6.51,-6.86l5.11,0l-0,-11.9l-3.5,0Zm35.146,0.14l-1.33,2.94c-3.08,-2.59 -7.07,-4.06 -11.55,-4.06c-11.55,0 -19.81,8.33 -19.81,20.02c-0,11.76 8.26,20.16 19.81,20.16c4.41,0 8.33,-1.4 11.41,-3.92l1.12,2.66l10.08,0l-0,-37.8l-9.73,0Zm-11.13,27.58c-4.9,0 -8.47,-3.71 -8.47,-8.68c-0,-4.9 3.57,-8.54 8.47,-8.54c4.9,0 8.47,3.64 8.47,8.54c-0,4.97 -3.57,8.68 -8.47,8.68Zm56.237,-27.58l-1.68,3.22c-3.22,-2.73 -7.35,-4.41 -11.9,-4.41c-10.85,-0 -18.9,8.26 -18.9,19.04c-0,10.92 8.05,18.97 18.9,18.97c3.64,-0 7,-1.05 9.87,-2.8l-0,1.12c-0,4.48 -3.5,7.28 -7.91,7.28c-3.15,-0 -6.37,-1.4 -7.28,-3.92l-12.53,-0c1.75,8.96 9.24,14.35 19.95,14.35c12.46,-0 20.23,-7.35 20.23,-19.18l-0,-33.6l-8.75,-0.07Zm-11.41,26.11c-4.76,0 -8.12,-3.43 -8.12,-8.26c-0,-4.76 3.43,-8.26 8.12,-8.26c4.69,0 8.05,3.5 8.05,8.26c-0,4.83 -3.36,8.26 -8.05,8.26Zm44.225,12.95c12.32,0 21.21,-8.47 21.21,-20.16c-0,-11.69 -8.89,-20.09 -21.21,-20.09c-12.32,-0 -21.14,8.4 -21.14,20.09c-0,11.69 8.82,20.16 21.14,20.16Zm-0,-11.69c-4.69,-0 -8.12,-3.43 -8.12,-8.4c-0,-5.04 3.43,-8.47 8.12,-8.47c4.76,0 8.19,3.5 8.19,8.47c-0,4.97 -3.43,8.4 -8.19,8.4Zm46.911,-28.42c-4.9,-0 -9.1,1.82 -11.9,4.97l-1.75,-3.92l-9.17,0l-0,37.8l13.02,0l-0,-20.16c-0,-4.83 2.31,-7.63 6.37,-7.63c3.29,0 4.97,2.17 4.97,6.58l-0,21.21l13.02,0l-0,-23.03c-0,-9.59 -5.81,-15.82 -14.56,-15.82Zm43.938,1.68l-8.89,0l-0,-2.52c-0,-1.96 1.12,-3.08 3.08,-3.08l5.74,0l-0,-10.01l-9.1,0c-7.98,0 -12.18,4.41 -12.18,12.04l-0,3.57l-6.44,0l0.07,10.22l6.23,0l-0,26.95l13.02,0l-0,-26.95l8.47,0l-0,-10.22Zm1.795,37.17l13.02,0l-0,-51.45l-13.02,0l-0,51.45Zm43.591,-37.8l-7.49,20.86l-8.05,-20.86l-14.14,0l15.61,34.72c-1.75,4.69 -3.22,6.02 -8.19,6.02l-3.64,0l-0,11.13l4.48,0c9.8,0 14.42,-4.13 19.53,-15.75l15.89,-36.12l-14,0Zm54.065,37.8l13.632,0l-17.984,-44.8l-12.096,0l-17.6,44.8l13.248,0l2.496,-7.232l15.872,0l2.432,7.232Zm-5.44,-16.896l-9.856,0l4.864,-13.888l4.992,13.888Zm20.489,16.896l12.544,0l0,-44.8l-12.544,0l0,44.8Z" style="fill:#fff;fill-rule:nonzero;"/><path d="M58.21,57.14c0,0 3.069,-2.12 4.005,-2.626c0.844,-0.456 1.591,-0.938 2.227,-1.168c9.161,-3.323 14.433,-3.083 17.913,-2.933c5.692,-0.128 9.895,-0.1 15.408,-3.778c2.028,-1.353 3.54,-3.331 4.55,-5.455c3.777,-7.951 2.395,-17.772 -4.143,-24.364c-6.542,-6.596 -16.292,-7.986 -24.181,-4.17c-2.102,1.017 -3.945,2.601 -5.396,4.58c-3.895,5.309 -3.898,9.505 -3.749,15.534c-0.146,3.233 0.412,8.845 -2.891,18.076c-0.232,0.647 -0.701,1.382 -1.163,2.242c-0.501,0.934 -2.58,4.062 -2.58,4.062Z" style="fill:#f2318a;fill-rule:nonzero;"/><path d="M56.527,58.837c0,0 -3.068,2.121 -4.004,2.627c-0.845,0.456 -1.592,0.937 -2.227,1.168c-9.162,3.323 -14.434,3.082 -17.914,2.932c-5.691,0.129 -9.895,0.101 -15.408,3.779c-2.028,1.353 -3.54,3.331 -4.549,5.455c-3.778,7.951 -2.396,17.772 4.142,24.364c6.543,6.596 16.292,7.986 24.181,4.169c2.102,-1.016 3.945,-2.6 5.397,-4.579c3.895,-5.31 3.897,-9.505 3.748,-15.534c0.146,-3.234 -0.412,-8.845 2.892,-18.077c0.231,-0.646 0.7,-1.381 1.162,-2.241c0.501,-0.935 2.58,-4.063 2.58,-4.063Z" style="fill:#f2318a;fill-rule:nonzero;"/><path d="M64.733,99.355c9.181,9.255 24.065,9.255 33.246,-0c9.18,-9.256 9.18,-24.262 -0,-33.517c-9.181,-9.256 -24.065,-9.256 -33.246,-0c-9.18,9.255 -9.18,24.261 0,33.517Z" style="fill:#19d3c8;fill-rule:nonzero;"/><path d="M16.759,50.14c9.18,9.255 24.065,9.255 33.245,-0c9.181,-9.255 9.181,-24.262 0,-33.517c-9.18,-9.255 -24.065,-9.255 -33.245,0c-9.181,9.256 -9.181,24.262 -0,33.517Z" style="fill:#19d3c8;fill-rule:nonzero;"/></svg>